<svg xmlns="http://www.w3.org/2000/svg" width="19.146" height="19.05" viewBox="0 0 19.146 19.05">
  <g id="edit" transform="translate(0 -0.261)">
    <path id="Path_1393" data-name="Path 1393" d="M17.671,49.272a.477.477,0,0,0-.477.477v4.234a1.432,1.432,0,0,1-1.431,1.431H2.384A1.432,1.432,0,0,1,.954,53.982V41.556a1.432,1.432,0,0,1,1.431-1.431H6.618a.477.477,0,1,0,0-.954H2.384A2.387,2.387,0,0,0,0,41.556V53.983a2.387,2.387,0,0,0,2.384,2.384h13.38a2.387,2.387,0,0,0,2.384-2.384V49.749A.477.477,0,0,0,17.671,49.272Zm0,0" transform="translate(0 -37.056)"/>
    <path id="Path_1394" data-name="Path 1394" d="M120.99.889a2.146,2.146,0,0,0-3.035,0L109.449,9.4a.477.477,0,0,0-.122.21l-1.119,4.039a.477.477,0,0,0,.587.587l4.039-1.119a.477.477,0,0,0,.21-.122l8.507-8.507a2.148,2.148,0,0,0,0-3.035Zm-10.5,8.817,6.962-6.963L119.7,4.989l-6.963,6.963Zm-.449.9,1.794,1.794-2.481.688Zm10.837-6.8-.506.506-2.246-2.246.506-.506a1.192,1.192,0,0,1,1.686,0l.56.56A1.194,1.194,0,0,1,120.876,3.809Zm0,0" transform="translate(-103.031)"/>
  </g>
</svg>
